<svg aria-hidden="true" style="position:absolute;width:0;height:0" xmlns="http://www.w3.org/2000/svg" overflow="hidden"><defs><symbol id="cart" viewBox="0 0 38 32"><path d="M35.256 8.772l-4.668 10.353a1.545 1.545 0 01-1.318.922l-13.402.885.772 2.221h14.607c1.713 0 3.106 1.393 3.106 3.106s-1.393 3.106-3.106 3.106a3.11 3.11 0 01-3.106-3.106H13.647c0 1.713-1.393 3.106-3.106 3.106s-3.106-1.393-3.106-3.106a3.11 3.11 0 013.106-3.106h2.805L7.36 6.061H3.802c-.847 0-1.544-.678-1.544-1.544s.696-1.562 1.544-1.562H8.47c.678 0 1.242.452 1.468 1.054l.904 2.579h22.984a1.554 1.554 0 011.43 2.184zm-23.322.922l2.861 8.207 13.346-.904 3.294-7.304H11.934z"/></symbol><symbol id="glass" viewBox="0 0 32 32"><path d="M29.312 25.568c.48.48.768 1.136.768 1.872a2.643 2.643 0 01-2.64 2.64 2.69 2.69 0 01-1.872-.768l-7.728-7.744a10.518 10.518 0 01-5.36 1.472c-5.84 0-10.56-4.736-10.56-10.56 0-5.84 4.72-10.56 10.56-10.56s10.56 4.72 10.56 10.56c0 1.952-.544 3.776-1.472 5.36l7.744 7.728zM12.48 4.56c-4.368 0-7.92 3.552-7.92 7.92s3.552 7.92 7.92 7.92 7.92-3.552 7.92-7.92-3.552-7.92-7.92-7.92z"/></symbol></defs></svg>